<svg width="27" height="27" viewBox="0 0 27 27" fill="none" xmlns="http://www.w3.org/2000/svg">
<path d="M2 22C2 20.4176 2.66667 17.4286 6.33333 17.4286H12C15.1667 17.4286 16.3333 20.4176 16.3333 22M25 22C25 20.4176 23.8333 17.4286 20.6667 17.4286H18.3333M21.8333 11.0989C21.8333 12.7497 20.5648 14.0879 19 14.0879C17.4352 14.0879 16.1667 12.7497 16.1667 11.0989C16.1667 9.44812 17.4352 8.10989 19 8.10989C20.5648 8.10989 21.8333 9.44812 21.8333 11.0989ZM12.5 9.86813C12.5 12.0044 10.8584 13.7363 8.83333 13.7363C6.80829 13.7363 5.16667 12.0044 5.16667 9.86813C5.16667 7.73182 6.80829 6 8.83333 6C10.8584 6 12.5 7.73182 12.5 9.86813Z" stroke="#868686" stroke-width="1.5" stroke-linecap="round"/>
</svg>
