<svg width="27" height="27" viewBox="0 0 27 27" fill="none" xmlns="http://www.w3.org/2000/svg">
<path d="M14.4216 16.6667C14.4216 16.2525 14.0859 15.9167 13.6716 15.9167C13.2574 15.9167 12.9216 16.2525 12.9216 16.6667H14.4216ZM10.9254 14.0001H11.6754V13.2501H10.9254V14.0001ZM16.4179 14.0001V13.2501H15.6679V14.0001H16.4179ZM12.9216 16.6667V19.8334H14.4216V16.6667H12.9216ZM13.6716 19.0834H11.2579V20.5834H13.6716V19.0834ZM11.6754 19.5009V14.0001H10.1754V19.5009H11.6754ZM18.306 13.2501H16.4179V14.7501H18.306V13.2501ZM15.6679 14.0001V19.5009H17.1679V14.0001H15.6679ZM16.0854 19.0834H13.6716V20.5834H16.0854V19.0834ZM24.25 19.3333C24.25 19.709 24.0655 20.14 23.577 20.6086C23.0866 21.0791 22.3373 21.5374 21.3497 21.9382C19.3784 22.7381 16.6035 23.25 13.5 23.25V24.75C16.7478 24.75 19.7228 24.2172 21.9137 23.3281C23.0073 22.8844 23.9421 22.3371 24.6155 21.691C25.2909 21.043 25.75 20.2463 25.75 19.3333H24.25ZM13.5 23.25C10.3965 23.25 7.62156 22.7381 5.65029 21.9382C4.66272 21.5374 3.9134 21.0791 3.42296 20.6086C2.93452 20.14 2.75 19.709 2.75 19.3333H1.25C1.25 20.2463 1.70907 21.043 2.38449 21.691C3.05791 22.3371 3.99273 22.8844 5.08626 23.3281C7.27717 24.2172 10.2522 24.75 13.5 24.75V23.25ZM2.75 19.3333C2.75 18.6892 3.32294 17.871 4.83344 17.0998C6.28612 16.3581 8.37667 15.7906 10.8279 15.5468L10.6795 14.0542C8.10558 14.3101 5.81926 14.9123 4.15138 15.7638C2.54132 16.5858 1.25 17.7841 1.25 19.3333H2.75ZM16.3388 15.564C18.7471 15.8196 20.7948 16.3885 22.2156 17.125C23.6917 17.8902 24.25 18.6971 24.25 19.3333H25.75C25.75 17.8013 24.4864 16.6126 22.906 15.7933C21.2703 14.9454 19.027 14.3408 16.4971 14.0723L16.3388 15.564ZM15.8396 5.83335C15.8396 6.96331 14.8899 7.9167 13.6716 7.9167V9.4167C15.6764 9.4167 17.3396 7.83302 17.3396 5.83335H15.8396ZM13.6716 7.9167C12.4534 7.9167 11.5037 6.96331 11.5037 5.83335H10.0037C10.0037 7.83302 11.6669 9.4167 13.6716 9.4167V7.9167ZM11.5037 5.83335C11.5037 4.70339 12.4534 3.75 13.6716 3.75V2.25C11.6669 2.25 10.0037 3.83368 10.0037 5.83335H11.5037ZM13.6716 3.75C14.8899 3.75 15.8396 4.70339 15.8396 5.83335H17.3396C17.3396 3.83368 15.6764 2.25 13.6716 2.25V3.75ZM18.306 14.7501C18.5368 14.7501 18.8871 14.701 19.2085 14.5213C19.5652 14.3218 19.9142 13.9332 19.9142 13.3334H18.4142C18.4142 13.3322 18.4145 13.3206 18.4199 13.3021C18.4255 13.2834 18.4343 13.2646 18.4455 13.2476C18.4677 13.2142 18.4869 13.2062 18.4762 13.2122C18.4647 13.2186 18.4385 13.2298 18.3982 13.2387C18.3584 13.2476 18.3235 13.2501 18.306 13.2501V14.7501ZM19.9142 13.3334C19.9142 13.0154 19.9706 11.6435 19.1811 10.3576C18.3502 9.00426 16.7029 7.9167 13.6716 7.9167V9.4167C16.3046 9.4167 17.4035 10.3291 17.9028 11.1424C18.4436 12.0232 18.4142 12.9847 18.4142 13.3334H19.9142ZM9.03731 14.7501H10.9254V13.2501H9.03731V14.7501ZM9.03731 13.2501C9.01977 13.2501 8.98489 13.2476 8.94504 13.2387C8.90477 13.2298 8.87863 13.2186 8.86704 13.2122C8.85643 13.2062 8.87557 13.2142 8.89775 13.2476C8.90898 13.2646 8.91781 13.2834 8.92335 13.3021C8.92883 13.3206 8.9291 13.3322 8.9291 13.3334H7.4291C7.4291 13.9332 7.77809 14.3218 8.13483 14.5213C8.45616 14.701 8.80653 14.7501 9.03731 14.7501V13.2501ZM8.9291 13.3334C8.9291 12.9847 8.8997 12.0232 9.44046 11.1424C9.93979 10.3291 11.0387 9.4167 13.6716 9.4167V7.9167C10.6404 7.9167 8.99305 9.00426 8.16215 10.3576C7.37269 11.6435 7.4291 13.0154 7.4291 13.3334H8.9291ZM15.6679 19.5009C15.6679 19.2703 15.8548 19.0834 16.0854 19.0834V20.5834C16.6833 20.5834 17.1679 20.0988 17.1679 19.5009H15.6679ZM11.2579 19.0834C11.4885 19.0834 11.6754 19.2703 11.6754 19.5009H10.1754C10.1754 20.0988 10.66 20.5834 11.2579 20.5834V19.0834Z" fill="#868686"/>
</svg>
