<svg width="27" height="27" viewBox="0 0 27 27" fill="none" xmlns="http://www.w3.org/2000/svg">
<path d="M16.2712 6C16.9334 7.43751 17.1392 9.04344 16.8607 10.6015C16.5823 12.1595 15.833 13.5947 14.7139 14.7139C13.5947 15.833 12.1595 16.5823 10.6015 16.8607C9.04344 17.1392 7.43751 16.9334 6 16.2712C6.85508 20.1216 10.29 23 14.3976 23C19.1487 23 23 19.1487 23 14.3976C23 10.29 20.1216 6.85508 16.2712 6Z" fill="#868686"/>
<path d="M6.66667 4.31818C6.66667 4.21212 6.6 4 6.33333 4C6.06667 4 6 4.21212 6 4.31818C6 4.84848 5.66667 5.90909 4.33333 5.90909C4.22222 5.90909 4 5.97273 4 6.22727C4 6.48182 4.22222 6.54545 4.33333 6.54545C4.88889 6.59848 6 6.99091 6 8.13636C6 8.24242 6.06667 8.45455 6.33333 8.45455C6.6 8.45455 6.66667 8.24242 6.66667 8.13636C6.66667 6.86364 7.88889 6.54545 8.33333 6.54545C8.44444 6.54545 8.66667 6.48182 8.66667 6.22727C8.66667 5.97273 8.44444 5.90909 8.33333 5.90909C7 5.90909 6.66667 4.84848 6.66667 4.31818Z" fill="#868686"/>
<path d="M11 8.13636C11 8.0303 11.0667 7.81818 11.3333 7.81818C11.6 7.81818 11.6667 8.0303 11.6667 8.13636C11.6667 8.45455 11.8667 9.09091 12.6667 9.09091C12.7778 9.09091 13 9.15455 13 9.40909C13 9.66364 12.7778 9.72727 12.6667 9.72727C12.3333 9.72727 11.6667 9.91818 11.6667 10.6818C11.6667 10.7879 11.6 11 11.3333 11C11.0667 11 11 10.7879 11 10.6818C11 10.3636 10.8 9.72727 10 9.72727C9.88889 9.72727 9.66667 9.66364 9.66667 9.40909C9.66667 9.15455 9.88889 9.09091 10 9.09091C10.3333 9.09091 11 8.9 11 8.13636Z" fill="#868686"/>
</svg>
