<svg width="27" height="27" viewBox="0 0 27 27" fill="none" xmlns="http://www.w3.org/2000/svg">
<path d="M14.9474 21.7371C7.16546 18.6217 5 10.4955 5 5.97298C5 5.1946 5.63158 5 5.94737 5H8.78947C9.54737 5 9.73684 5.64865 9.73684 5.97297C9.73684 5.97297 9.73684 8.92639 9.73684 10.1548C9.73684 11.3832 7.16977 13.3014 6.53819 13.2703M14.9474 21.7371C16.9316 22.5314 19.2809 23 22.0526 23C22.3684 23 23 22.8054 23 22.027C23 21.2486 23 20.0811 23 19.5946C23 19.2703 22.8105 18.6216 22.0526 18.6216C21.2947 18.6216 19.2105 18.6216 18.2632 18.6216C17.6316 18.5905 16.0842 19.17 14.9474 21.7371Z" stroke="#868686" stroke-width="1.5"/>
</svg>
