<svg width="27" height="27" viewBox="0 0 27 27" fill="none" xmlns="http://www.w3.org/2000/svg">
<path d="M19.7429 13.3357C19.7429 16.6928 17.0215 19.4143 13.6644 19.4143C10.3073 19.4143 7.58578 16.6928 7.58578 13.3357C7.58578 9.97861 10.3073 7.25714 13.6644 7.25714C17.0215 7.25714 19.7429 9.97861 19.7429 13.3357Z" fill="#868686"/>
<path d="M12.8429 2.82143C12.8429 2.36777 13.2107 2 13.6644 2C14.118 2 14.4858 2.36777 14.4858 2.82143V3.80714C14.4858 4.26081 14.118 4.62857 13.6644 4.62857C13.2107 4.62857 12.8429 4.26081 12.8429 3.80714V2.82143Z" fill="#868686"/>
<path d="M12.8429 23.1929C12.8429 22.7392 13.2107 22.3714 13.6644 22.3714C14.118 22.3714 14.4858 22.7392 14.4858 23.1929V24.1786C14.4858 24.6322 14.118 25 13.6644 25C13.2107 25 12.8429 24.6322 12.8429 24.1786V23.1929Z" fill="#868686"/>
<path d="M5.39848 6.40753C5.07769 6.08674 5.07769 5.56664 5.39848 5.24585C5.71927 4.92506 6.23937 4.92506 6.56015 5.24585L7.25716 5.94286C7.57795 6.26365 7.57795 6.78374 7.25716 7.10453C6.93637 7.42532 6.41627 7.42532 6.09548 7.10453L5.39848 6.40753Z" fill="#868686"/>
<path d="M20.0598 21.0688C19.739 20.748 19.739 20.2279 20.0598 19.9071C20.3805 19.5864 20.9006 19.5864 21.2214 19.9071L21.9184 20.6041C22.2392 20.9249 22.2392 21.445 21.9184 21.7658C21.5976 22.0866 21.0775 22.0866 20.7568 21.7658L20.0598 21.0688Z" fill="#868686"/>
<path d="M7.42143 21.0688C7.74222 20.748 7.74222 20.2279 7.42143 19.9071C7.10064 19.5864 6.58054 19.5864 6.25975 19.9071L5.56275 20.6041C5.24196 20.9249 5.24196 21.445 5.56275 21.7658C5.88354 22.0866 6.40364 22.0866 6.72442 21.7658L7.42143 21.0688Z" fill="#868686"/>
<path d="M21.9184 6.40753C22.2392 6.08674 22.2392 5.56664 21.9184 5.24585C21.5976 4.92506 21.0775 4.92506 20.7568 5.24585L20.0598 5.94286C19.739 6.26365 19.739 6.78374 20.0598 7.10453C20.3805 7.42532 20.9006 7.42532 21.2214 7.10453L21.9184 6.40753Z" fill="#868686"/>
<path d="M2.82143 14.1571C2.36777 14.1571 2 13.7894 2 13.3357C2 12.8821 2.36777 12.5143 2.82143 12.5143H3.80714C4.26081 12.5143 4.62857 12.8821 4.62857 13.3357C4.62857 13.7894 4.26081 14.1571 3.80714 14.1571H2.82143Z" fill="#868686"/>
<path d="M23.1929 14.1571C22.7392 14.1571 22.3714 13.7894 22.3714 13.3357C22.3714 12.8821 22.7392 12.5143 23.1929 12.5143H24.1786C24.6322 12.5143 25 12.8821 25 13.3357C25 13.7894 24.6322 14.1571 24.1786 14.1571H23.1929Z" fill="#868686"/>
</svg>
