<svg width="17" height="17" viewBox="0 0 17 17" fill="none" xmlns="http://www.w3.org/2000/svg">
<path fill-rule="evenodd" clip-rule="evenodd" d="M10.3826 2.11599C10.809 1.91229 11.3508 2.14772 11.5168 2.59047C11.7287 3.15541 12.0757 3.86779 12.605 4.39769C13.1343 4.92759 13.8459 5.275 14.4102 5.48706C14.8524 5.65326 15.0876 6.19574 14.8841 6.62253C14.6099 7.19779 14.3127 7.9485 14.3127 8.5009C14.3127 9.07986 14.6391 9.87666 14.9235 10.461C15.1186 10.862 14.9251 11.3693 14.517 11.5483C13.9381 11.8022 13.1683 12.2111 12.605 12.7751C12.0932 13.2874 11.7518 13.9278 11.5383 14.4404C11.3589 14.8712 10.8226 15.0971 10.4022 14.8952C9.82514 14.6181 9.06444 14.3138 8.50637 14.3138C7.92975 14.3138 7.13704 14.6385 6.55392 14.9225C6.15163 15.1185 5.62615 14.9271 5.43034 14.5244C5.17494 13.9992 4.77715 13.3158 4.23698 12.7751C3.68655 12.224 2.98829 11.821 2.45985 11.566C2.06619 11.376 1.88494 10.8784 2.07727 10.4855C2.36436 9.89911 2.7 9.088 2.7 8.5009C2.7 7.94221 2.39605 7.18066 2.11924 6.60294C1.91759 6.18208 2.14315 5.64522 2.5735 5.46558C3.08556 5.25182 3.72518 4.91007 4.23698 4.39769C4.80029 3.83375 5.20876 3.06313 5.46238 2.48351C5.64116 2.07496 6.14796 1.88123 6.54848 2.07658C7.13215 2.36126 7.92806 2.68802 8.50637 2.68802C9.05815 2.68802 9.80803 2.39055 10.3826 2.11599ZM11.4229 6.24968C11.2356 6.05438 10.9318 6.05438 10.7444 6.24968L7.48195 9.6575L6.23454 8.35723C6.04718 8.16193 5.7434 8.16193 5.55604 8.35723C5.36867 8.55253 5.36867 8.86918 5.55604 9.06449L7.18045 10.7577C7.28095 10.8578 7.53953 10.9978 7.76982 10.7577L11.4229 6.94983C11.6103 6.75453 11.6103 6.44499 11.4229 6.24968Z" fill="#868686"/>
</svg>
